<svg width="1024" height="1024" viewBox="0 0 1024 1024" xmlns="http://www.w3.org/2000/svg">
    <defs>
        <linearGradient id="bg" x1="0" y1="0" x2="0" y2="1">
            <stop offset="0" stop-color="#4A9BFF"/>
            <stop offset="1" stop-color="#1E73E8"/>
        </linearGradient>
    </defs>
    <rect width="1024" height="1024" rx="229" ry="229" fill="url(#bg)"/>
    <g transform="translate(207, 135)">
        <path fill="#ffffff" d="M 22.048193 0 L 587.951782 0 C 600.128662 0 610 12.088318 610 27 L 610 27 C 610 41.911682 600.128662 54 587.951782 54 L 22.048193 54 C 9.871309 54 -0 41.911682 -0 27 L -0 27 C -0 12.088318 9.871309 0 22.048193 0 Z"/>
        <path fill="#ffffff" d="M 21.048193 110 L 586.951782 110 C 599.128662 110 609 122.088318 609 137 L 609 137 C 609 151.911682 599.128662 164 586.951782 164 L 21.048193 164 C 8.871309 164 -1 151.911682 -1 137 L -1 137 C -1 122.088318 8.871309 110 21.048193 110 Z"/>
        <path fill="#ffffff" d="M 21.048193 221 L 586.951782 221 C 599.128662 221 609 233.088318 609 248 L 609 248 C 609 262.911682 599.128662 275 586.951782 275 L 21.048193 275 C 8.871309 275 -1 262.911682 -1 248 L -1 248 C -1 233.088318 8.871309 221 21.048193 221 Z"/>
        <path fill="#ffffff" d="M 417 434 C 417 494.751312 367.751312 544 307 544 C 246.248657 544 197 494.751312 197 434 C 197 373.248688 246.248657 324 307 324 C 367.751312 324 417 373.248688 417 434 Z"/>
        <path fill="#ffffff" d="M 106 754 L 106 689.290344 C 106 620.77417 195.555557 577 307.5 577 C 419.444458 577 509 620.77417 509 689.290344 L 509 754 L 106 754 Z"/>
    </g>
</svg>
